<svg width="346" height="40" viewBox="0 0 346 40" fill="none" xmlns="http://www.w3.org/2000/svg">
<path d="M4.58401 39.096C3.49601 39.064 2.61601 38.616 1.94401 37.752C1.30401 37.112 0.968006 36.328 0.936006 35.4C0.904006 32.136 0.840006 27.512 0.744006 21.528L0.600006 8.04001C0.600006 7.11201 0.920006 6.32801 1.56001 5.68801C2.20001 5.01601 2.98401 4.68001 3.91201 4.68001C4.84001 4.64801 5.62401 4.95201 6.26401 5.59201C6.93601 6.23201 7.28801 7.01601 7.32001 7.94401L7.60801 32.616C9.17601 32.616 11.448 32.6 14.424 32.568C17.432 32.536 19.64 32.52 21.048 32.52C21.976 32.52 22.76 32.84 23.4 33.48C24.072 34.088 24.408 34.84 24.408 35.736C24.408 36.632 24.072 37.416 23.4 38.088C22.76 38.728 21.976 39.048 21.048 39.048C19.992 39.048 17.256 39.064 12.84 39.096C8.39201 39.128 5.64001 39.128 4.58401 39.096Z" fill="#131313"/>
<path d="M38.4503 39.432C35.8903 39.432 33.6503 38.888 31.7303 37.8C29.8103 36.712 28.3383 35.256 27.3143 33.432C26.3223 31.608 25.8263 29.592 25.8263 27.384C25.8263 24.6 26.3383 22.2 27.3623 20.184C28.3863 18.136 29.8583 16.52 31.7783 15.336C33.6983 14.152 35.8743 13.56 38.3063 13.56C40.8023 13.56 42.9303 14.072 44.6903 15.096C46.4823 16.12 47.8263 17.512 48.7223 19.272C49.6183 21 50.0663 22.936 50.0663 25.08C50.0663 26.168 49.7143 27.016 49.0103 27.624C48.3063 28.232 47.3623 28.584 46.1783 28.68C43.7783 28.904 41.6503 29.016 39.7943 29.016C38.0343 29.016 36.1463 28.968 34.1303 28.872L32.4503 28.824C32.6423 30.392 33.2503 31.624 34.2743 32.52C35.3303 33.384 36.9143 33.784 39.0263 33.72C39.9863 33.688 40.7543 33.576 41.3303 33.384C41.9063 33.16 42.4183 32.84 42.8663 32.424C43.1223 32.168 43.3943 31.896 43.6823 31.608C43.9703 31.32 44.2903 31.096 44.6423 30.936C44.9943 30.776 45.4263 30.696 45.9383 30.696C46.7703 30.696 47.4583 30.984 48.0023 31.56C48.5783 32.104 48.8663 32.744 48.8663 33.48C48.8663 34.504 48.3543 35.48 47.3303 36.408C46.3063 37.336 44.9783 38.072 43.3463 38.616C41.7463 39.16 40.1143 39.432 38.4503 39.432ZM32.5463 23.928C34.4343 24.184 36.5303 24.28 38.8343 24.216C41.0423 24.184 42.6583 24.04 43.6823 23.784C43.6183 22.408 43.2023 21.304 42.4343 20.472C41.6983 19.64 40.3543 19.24 38.4023 19.272C36.7703 19.304 35.4423 19.672 34.4183 20.376C33.3943 21.08 32.7703 22.264 32.5463 23.928Z" fill="#131313"/>
<path d="M63.1796 39.096C62.5396 39.096 61.9156 38.888 61.3076 38.472C60.9556 38.344 60.6196 38.184 60.2996 37.992L59.0516 37.272C57.7716 36.536 56.8116 35.848 56.1716 35.208C55.6276 34.504 55.2916 33.816 55.1636 33.144C55.0356 32.44 54.9556 31.416 54.9236 30.072V29.112C54.8916 28.184 54.8756 26.024 54.8756 22.632C54.8756 21.256 54.8916 20.216 54.9236 19.512H54.0116C53.2116 19.512 52.5076 19.24 51.8996 18.696C51.3236 18.12 51.0356 17.4 51.0356 16.536C51.0356 15.64 51.3396 14.904 51.9476 14.328C52.5556 13.72 53.2596 13.416 54.0596 13.416H54.9236L54.9716 11.352V9.86401C55.0036 8.84001 55.3396 8.05601 55.9796 7.51201C56.6516 6.93601 57.4196 6.64801 58.2836 6.64801C59.1796 6.64801 59.9636 6.95201 60.6356 7.56001C61.3396 8.16801 61.6916 9.00001 61.6916 10.056L61.5956 13.32H63.3716C64.5236 13.32 65.3876 13.624 65.9636 14.232C66.5396 14.84 66.8276 15.608 66.8276 16.536C66.8276 17.432 66.5236 18.2 65.9156 18.84C65.3076 19.448 64.4116 19.752 63.2276 19.752H61.4516C61.4516 21.064 61.4356 22.04 61.4036 22.68C61.3716 23.352 61.3556 24.312 61.3556 25.56C61.3556 27.608 61.4196 29.384 61.5476 30.888C61.6756 31.016 61.7556 31.08 61.7876 31.08L62.2676 31.416L62.6516 31.608L63.0836 31.848L63.4676 32.04C64.0436 32.296 64.5396 32.584 64.9556 32.904C65.9476 33.576 66.4436 34.472 66.4436 35.592C66.4436 36.488 66.1236 37.304 65.4836 38.04C64.8436 38.744 64.0756 39.096 63.1796 39.096Z" fill="#131313"/>
<path d="M77.0029 36.072C76.9709 37 76.6189 37.784 75.9469 38.424C75.3069 39.064 74.5229 39.368 73.5949 39.336C72.6669 39.336 71.8829 39.016 71.2429 38.376C70.6029 37.704 70.2829 36.904 70.2829 35.976C70.3789 27.688 70.2669 21.528 69.9469 17.496C69.9149 16.568 70.2029 15.768 70.8109 15.096C71.4189 14.392 72.1869 14.024 73.1149 13.992C74.0429 13.928 74.8429 14.2 75.5149 14.808C76.2189 15.416 76.6029 16.184 76.6669 17.112C76.9549 21.272 77.0669 27.592 77.0029 36.072ZM73.1629 11.64C72.2669 11.672 71.4669 11.384 70.7629 10.776C70.0589 10.168 69.6749 9.41601 69.6109 8.52001C69.5789 7.59201 69.8669 6.77601 70.4749 6.07201L74.2189 1.94401C74.8269 1.24001 75.5949 0.856013 76.5229 0.792012C77.4189 0.760012 78.2189 1.04801 78.9229 1.65601C79.6269 2.26401 79.9949 3.03201 80.0269 3.96001C80.0909 4.85601 79.8189 5.65601 79.2109 6.36001L75.4669 10.488C74.8589 11.192 74.0909 11.576 73.1629 11.64Z" fill="#131313"/>
<path d="M97.3583 38.808C95.8863 39.32 94.4463 39.512 93.0383 39.384C91.6303 39.256 90.2703 38.936 88.9583 38.424C86.9103 37.592 85.1663 36.232 83.7263 34.344C82.2863 32.456 81.4703 30.376 81.2783 28.104C81.1503 26.216 81.4543 24.296 82.1903 22.344C82.9583 20.36 84.0303 18.664 85.4063 17.256C86.3983 16.232 87.5023 15.416 88.7183 14.808C89.9663 14.168 91.3743 13.768 92.9423 13.608C94.5103 13.448 96.0943 13.72 97.6943 14.424C98.5583 14.776 99.4703 15.352 100.43 16.152C100.494 16.216 100.702 16.408 101.054 16.728L101.918 17.448C102.654 18.024 103.07 18.76 103.166 19.656C103.294 20.52 103.07 21.32 102.494 22.056C101.918 22.76 101.166 23.176 100.238 23.304C99.3423 23.4 98.5263 23.16 97.7903 22.584C97.7263 22.552 97.1183 22.04 95.9663 21.048C95.5823 20.728 95.2943 20.52 95.1023 20.424C93.3743 19.72 91.7743 20.152 90.3023 21.72C89.5343 22.52 88.9263 23.464 88.4783 24.552C88.0623 25.64 87.9023 26.664 87.9983 27.624C88.0623 28.52 88.4143 29.448 89.0543 30.408C89.6943 31.336 90.5423 32.008 91.5983 32.424C92.7183 32.84 93.6623 33 94.4303 32.904C95.2303 32.776 95.8703 32.472 96.3503 31.992C96.5103 31.832 96.7023 31.496 96.9263 30.984C97.5983 29.512 97.9503 28.744 97.9823 28.68C98.3983 27.88 99.0383 27.352 99.9023 27.096C100.798 26.808 101.662 26.872 102.494 27.288C103.326 27.672 103.87 28.296 104.126 29.16C104.414 30.024 104.35 30.856 103.934 31.656C103.838 31.848 103.742 32.056 103.646 32.28C103.55 32.472 103.454 32.696 103.358 32.952C103.262 33.208 103.166 33.416 103.07 33.576C102.558 34.792 101.95 35.752 101.246 36.456C100.158 37.576 98.8623 38.36 97.3583 38.808Z" fill="#131313"/>
<path d="M108.056 35.736C107.96 28.952 108.008 22.6 108.2 16.68C108.232 15.752 108.584 14.984 109.256 14.376C109.96 13.736 110.776 13.432 111.704 13.464C112.632 13.496 113.4 13.864 114.008 14.568C114.648 15.24 114.952 16.04 114.92 16.968C114.728 22.952 114.68 29.176 114.776 35.64C114.776 36.568 114.456 37.368 113.816 38.04C113.176 38.68 112.392 39 111.464 39C110.536 39.032 109.736 38.728 109.064 38.088C108.424 37.448 108.088 36.664 108.056 35.736ZM113.768 5.25601C114.44 5.89601 114.776 6.71201 114.776 7.70401C114.776 8.66401 114.44 9.48001 113.768 10.152C113.096 10.824 112.28 11.16 111.32 11.16C110.36 11.16 109.544 10.824 108.872 10.152C108.2 9.48001 107.864 8.66401 107.864 7.70401C107.864 6.71201 108.2 5.88001 108.872 5.20801C109.544 4.53601 110.36 4.20001 111.32 4.20001C112.28 4.20001 113.096 4.55201 113.768 5.25601Z" fill="#131313"/>
<path d="M129.374 39.048C128.222 39.048 126.974 38.824 125.63 38.376C123.966 37.736 122.574 36.792 121.454 35.544C120.366 34.264 119.694 32.872 119.438 31.368C119.246 30.376 119.15 29.416 119.15 28.488C119.15 26.344 119.566 24.328 120.398 22.44C121.55 19.784 123.166 17.64 125.246 16.008C127.326 14.376 129.694 13.56 132.35 13.56C133.31 13.56 134.35 13.688 135.47 13.944C136.206 14.136 136.926 14.472 137.63 14.952H137.87L138.35 14.904C139.15 14.904 139.854 15.192 140.462 15.768C141.102 16.344 141.47 17.048 141.566 17.88L141.902 21.192C141.966 22.6 142.046 25 142.142 28.392L142.238 30.984C142.302 32.584 142.334 33.64 142.334 34.152C142.366 34.632 142.35 35.096 142.286 35.544C142.158 36.472 141.806 37.272 141.23 37.944C140.686 38.584 139.966 38.92 139.07 38.952C138.334 38.984 137.662 38.808 137.054 38.424C136.478 38.008 136.062 37.272 135.806 36.216C135.07 37.112 134.174 37.768 133.118 38.184C131.87 38.696 130.622 38.984 129.374 39.048ZM129.422 32.28C130.382 32.28 131.374 31.976 132.398 31.368C132.654 31.208 132.942 30.968 133.262 30.648L133.982 29.976L134.798 28.824C134.99 28.6 135.214 28.44 135.47 28.344C135.47 25.656 135.39 23.384 135.23 21.528L134.75 21.192L134.078 20.664L133.646 20.376C133.134 20.248 132.734 20.184 132.446 20.184C131.294 20.184 130.174 20.632 129.086 21.528C128.03 22.424 127.182 23.672 126.542 25.272C126.03 26.52 125.774 27.64 125.774 28.632C125.774 29.496 125.966 30.216 126.35 30.792C126.766 31.368 127.342 31.784 128.078 32.04C128.558 32.2 129.006 32.28 129.422 32.28Z" fill="#131313"/>
<path d="M174.962 39.144C173.49 39.208 171.73 39.192 169.682 39.096C169.362 39.096 168.738 39.064 167.81 39C166.882 38.968 166.178 38.936 165.698 38.904C165.57 38.936 165.442 38.952 165.314 38.952C164.738 38.952 164.226 38.824 163.778 38.568C163.202 38.28 162.738 37.864 162.386 37.32C162.034 36.776 161.858 36.168 161.858 35.496C161.858 35.272 161.89 35.048 161.954 34.824C161.954 33.32 161.97 30.648 162.002 26.808C162.034 22.968 162.018 19.704 161.954 17.016C161.89 14.296 161.746 11.576 161.522 8.85601C161.458 7.96001 161.682 7.17601 162.194 6.50401C162.706 5.80001 163.378 5.36801 164.21 5.20801C164.69 4.88801 165.234 4.71201 165.842 4.68001C166.29 4.68001 166.946 4.66401 167.81 4.63201C168.706 4.60001 169.33 4.56801 169.682 4.53601C171.41 4.47201 172.898 4.48801 174.146 4.58401C178.018 4.80801 181.106 5.78401 183.41 7.51201C185.362 8.98401 186.514 10.824 186.866 13.032C187.154 14.856 186.85 16.856 185.954 19.032C185.698 19.64 185.362 20.072 184.946 20.328C187.314 21.576 188.834 23.464 189.506 25.992C190.082 28.2 190.05 30.104 189.41 31.704C188.802 33.272 187.586 34.712 185.762 36.024C183.074 37.912 179.474 38.952 174.962 39.144ZM174.674 32.568C177.874 32.44 180.29 31.784 181.922 30.6C182.658 30.088 183.074 29.672 183.17 29.352C183.298 29.032 183.25 28.456 183.026 27.624C182.738 26.408 181.298 25.656 178.706 25.368C177.522 25.208 175.954 25.16 174.002 25.224C171.282 25.256 169.714 25.272 169.298 25.272L168.626 25.176C168.594 29.72 168.578 32.136 168.578 32.424C169.186 32.456 169.666 32.488 170.018 32.52C171.874 32.584 173.426 32.6 174.674 32.568ZM175.442 18.168C177.938 17.944 179.41 17.304 179.858 16.248C180.242 15.384 180.386 14.696 180.29 14.184C180.226 13.832 179.97 13.464 179.522 13.08C178.242 12.152 176.322 11.608 173.762 11.448C172.706 11.384 171.426 11.384 169.922 11.448C169.538 11.448 169.026 11.464 168.386 11.496C168.482 13.448 168.562 15.576 168.626 17.88C171.506 18.2 173.778 18.296 175.442 18.168Z" fill="#131313"/>
<path d="M195.51 37.992C194.838 37.352 194.502 36.584 194.502 35.688C194.47 32.52 194.454 30.024 194.454 28.2C194.39 27.816 194.39 27.448 194.454 27.096C194.422 23.544 194.406 20.328 194.406 17.448C194.406 16.2 194.726 15.256 195.366 14.616C196.038 13.944 196.838 13.608 197.766 13.608C198.438 13.608 199.046 13.8 199.59 14.184C200.166 14.536 200.582 15.176 200.838 16.104C202.118 15.4 204.038 14.6 206.598 13.704C207.43 13.416 208.23 13.464 208.998 13.848C209.798 14.2 210.342 14.792 210.63 15.624C210.918 16.456 210.87 17.272 210.486 18.072C210.134 18.84 209.542 19.368 208.71 19.656C205.766 20.68 203.254 21.688 201.174 22.68C201.046 23.704 201.03 25.16 201.126 27.048C201.158 29.064 201.19 31.912 201.222 35.592C201.222 36.52 200.886 37.32 200.214 37.992C199.574 38.664 198.79 39 197.862 39C196.966 39 196.182 38.664 195.51 37.992Z" fill="#131313"/>
<path d="M221.718 39.048C220.566 39.048 219.318 38.824 217.974 38.376C216.31 37.736 214.918 36.792 213.798 35.544C212.71 34.264 212.038 32.872 211.782 31.368C211.59 30.376 211.494 29.416 211.494 28.488C211.494 26.344 211.91 24.328 212.742 22.44C213.894 19.784 215.51 17.64 217.59 16.008C219.67 14.376 222.038 13.56 224.694 13.56C225.654 13.56 226.694 13.688 227.814 13.944C228.55 14.136 229.27 14.472 229.974 14.952H230.214L230.694 14.904C231.494 14.904 232.198 15.192 232.806 15.768C233.446 16.344 233.814 17.048 233.91 17.88L234.246 21.192C234.31 22.6 234.39 25 234.486 28.392L234.582 30.984C234.646 32.584 234.678 33.64 234.678 34.152C234.71 34.632 234.694 35.096 234.63 35.544C234.502 36.472 234.15 37.272 233.574 37.944C233.03 38.584 232.31 38.92 231.414 38.952C230.678 38.984 230.006 38.808 229.398 38.424C228.822 38.008 228.406 37.272 228.15 36.216C227.414 37.112 226.518 37.768 225.462 38.184C224.214 38.696 222.966 38.984 221.718 39.048ZM221.766 32.28C222.726 32.28 223.718 31.976 224.742 31.368C224.998 31.208 225.286 30.968 225.606 30.648L226.326 29.976L227.142 28.824C227.334 28.6 227.558 28.44 227.814 28.344C227.814 25.656 227.734 23.384 227.574 21.528L227.094 21.192L226.422 20.664L225.99 20.376C225.478 20.248 225.078 20.184 224.79 20.184C223.638 20.184 222.518 20.632 221.43 21.528C220.374 22.424 219.526 23.672 218.886 25.272C218.374 26.52 218.118 27.64 218.118 28.632C218.118 29.496 218.31 30.216 218.694 30.792C219.11 31.368 219.686 31.784 220.422 32.04C220.902 32.2 221.35 32.28 221.766 32.28Z" fill="#131313"/>
<path d="M261.424 35.976C261.392 36.84 261.056 37.576 260.416 38.184C259.776 38.792 259.024 39.08 258.16 39.048C257.296 39.016 256.56 38.68 255.952 38.04C255.344 37.4 255.056 36.648 255.088 35.784C255.088 35.432 255.12 34.376 255.184 32.616C255.28 30.856 255.328 29.496 255.328 28.536C255.36 27.576 255.328 26.472 255.232 25.224C255.136 23.944 254.96 22.92 254.704 22.152C254.512 21.544 254.128 21.048 253.552 20.664C252.976 20.248 252.256 20.008 251.392 19.944C250.496 19.848 249.664 19.96 248.896 20.28C248.16 20.568 247.616 20.984 247.264 21.528C247.136 21.944 247.056 22.232 247.024 22.392C247.024 22.52 247.024 22.728 247.024 23.016C247.024 24.136 247.04 26.152 247.072 29.064C247.104 31.944 247.12 34.136 247.12 35.64C247.12 36.568 246.784 37.368 246.112 38.04C245.472 38.68 244.688 39 243.76 39C242.832 39 242.032 38.68 241.36 38.04C240.72 37.368 240.4 36.568 240.4 35.64C240.4 34.296 240.368 31.544 240.304 27.384C240.272 23.224 240.144 20.04 239.92 17.832C239.76 16.68 239.984 15.768 240.592 15.096C241.2 14.392 241.984 14.04 242.944 14.04C244.672 14.136 245.68 14.968 245.968 16.536C247.44 14.68 249.472 13.704 252.064 13.608C254.336 13.64 256.192 14.264 257.632 15.48C259.072 16.664 260.112 18.248 260.752 20.232C261.104 21.32 261.344 22.696 261.472 24.36C261.632 26.024 261.696 27.432 261.664 28.584C261.664 29.704 261.616 31.208 261.52 33.096C261.456 34.984 261.424 35.944 261.424 35.976Z" fill="#131313"/>
<path d="M276.958 39.48C275.134 39.48 273.374 39 271.678 38.04C269.982 37.08 268.59 35.688 267.502 33.864C266.446 32.04 265.918 29.896 265.918 27.432C265.918 24.904 266.43 22.568 267.454 20.424C268.478 18.28 269.902 16.584 271.726 15.336C273.582 14.056 275.646 13.416 277.918 13.416C279.55 13.416 281.118 13.704 282.622 14.28C282.59 10.536 282.558 8.42401 282.526 7.94401C282.526 6.88801 282.862 6.07201 283.534 5.49601C284.206 4.88801 284.99 4.58401 285.886 4.58401C286.75 4.58401 287.518 4.87201 288.19 5.44801C288.862 6.02401 289.214 6.82401 289.246 7.84801C289.406 23.56 289.486 32.856 289.486 35.736C289.486 36.888 289.214 37.784 288.67 38.424C288.158 39.032 287.422 39.336 286.462 39.336C285.598 39.336 284.878 39.08 284.302 38.568C283.758 38.024 283.438 37.208 283.342 36.12C282.638 37.144 281.774 37.96 280.75 38.568C279.758 39.176 278.494 39.48 276.958 39.48ZM278.158 33.096C279.182 33.096 280.03 32.76 280.702 32.088C281.278 31.512 281.79 30.584 282.238 29.304C282.462 28.728 282.654 28.36 282.814 28.2C282.75 25.448 282.718 23.432 282.718 22.152C282.654 22.088 282.462 21.928 282.142 21.672C281.854 21.384 281.47 21.064 280.99 20.712C280.158 20.168 279.118 19.896 277.87 19.896C276.238 19.896 274.942 20.584 273.982 21.96C273.054 23.336 272.59 24.984 272.59 26.904C272.59 28.696 273.102 30.184 274.126 31.368C275.15 32.52 276.494 33.096 278.158 33.096Z" fill="#131313"/>
<path d="M304.077 39.048C302.925 39.048 301.677 38.824 300.333 38.376C298.669 37.736 297.277 36.792 296.157 35.544C295.069 34.264 294.397 32.872 294.141 31.368C293.949 30.376 293.853 29.416 293.853 28.488C293.853 26.344 294.269 24.328 295.101 22.44C296.253 19.784 297.869 17.64 299.949 16.008C302.029 14.376 304.397 13.56 307.053 13.56C308.013 13.56 309.053 13.688 310.173 13.944C310.909 14.136 311.629 14.472 312.333 14.952H312.573L313.053 14.904C313.853 14.904 314.557 15.192 315.165 15.768C315.805 16.344 316.173 17.048 316.269 17.88L316.605 21.192C316.669 22.6 316.749 25 316.845 28.392L316.941 30.984C317.005 32.584 317.037 33.64 317.037 34.152C317.069 34.632 317.053 35.096 316.989 35.544C316.861 36.472 316.509 37.272 315.933 37.944C315.389 38.584 314.669 38.92 313.773 38.952C313.037 38.984 312.365 38.808 311.757 38.424C311.181 38.008 310.765 37.272 310.509 36.216C309.773 37.112 308.877 37.768 307.821 38.184C306.573 38.696 305.325 38.984 304.077 39.048ZM304.125 32.28C305.085 32.28 306.077 31.976 307.101 31.368C307.357 31.208 307.645 30.968 307.965 30.648L308.685 29.976L309.501 28.824C309.693 28.6 309.917 28.44 310.173 28.344C310.173 25.656 310.093 23.384 309.933 21.528L309.453 21.192L308.781 20.664L308.349 20.376C307.837 20.248 307.437 20.184 307.149 20.184C305.997 20.184 304.877 20.632 303.789 21.528C302.733 22.424 301.885 23.672 301.245 25.272C300.733 26.52 300.477 27.64 300.477 28.632C300.477 29.496 300.669 30.216 301.053 30.792C301.469 31.368 302.045 31.784 302.781 32.04C303.261 32.2 303.709 32.28 304.125 32.28ZM298.941 10.68C298.237 10.68 297.693 10.456 297.309 10.008C296.925 9.56001 296.733 8.93601 296.733 8.13601C296.733 7.27201 297.037 6.40801 297.645 5.54401C298.253 4.64801 299.021 3.92801 299.949 3.38401C300.909 2.80801 301.853 2.52001 302.781 2.52001C303.613 2.52001 304.317 2.63201 304.893 2.85601C305.469 3.08001 306.109 3.43201 306.813 3.91201C307.453 4.32801 307.965 4.61601 308.349 4.77601C308.733 4.93601 309.197 5.01601 309.741 5.01601C310.413 5.01601 310.989 4.63201 311.469 3.86401C311.821 3.32001 312.141 2.95201 312.429 2.76001C312.717 2.53601 313.165 2.42401 313.773 2.42401C314.477 2.42401 315.021 2.64801 315.405 3.09601C315.821 3.54401 316.029 4.13601 316.029 4.87201C316.029 5.86401 315.757 6.80801 315.213 7.70401C314.669 8.60001 313.933 9.32001 313.005 9.86401C312.077 10.408 311.085 10.68 310.029 10.68C309.357 10.68 308.749 10.584 308.205 10.392C307.661 10.168 306.957 9.81601 306.093 9.33601C305.421 8.95201 304.845 8.68001 304.365 8.52001C303.917 8.32801 303.469 8.23201 303.021 8.23201C302.605 8.23201 302.205 8.34401 301.821 8.56801C301.469 8.76001 301.181 9.03201 300.957 9.38401C300.637 9.89601 300.349 10.248 300.093 10.44C299.837 10.6 299.453 10.68 298.941 10.68Z" fill="#131313"/>
<path d="M331.016 39.336C328.232 38.792 326.056 37.512 324.488 35.496C322.888 33.48 321.928 31.176 321.608 28.584C321.32 26.184 321.591 23.784 322.423 21.384C323.255 18.952 324.6 16.952 326.456 15.384C327.192 14.744 328.136 14.248 329.288 13.896C329.32 13.896 329.656 13.8 330.296 13.608C330.552 13.544 330.744 13.48 330.872 13.416C331.768 13.064 332.664 13.096 333.56 13.512C336.568 13.992 338.584 14.488 339.608 15C340.792 15.576 341.8 16.376 342.632 17.4C343.464 18.424 344.039 19.512 344.359 20.664C344.711 21.784 344.968 22.984 345.128 24.264C345.288 25.512 345.271 26.648 345.079 27.672C344.919 29.24 344.567 30.76 344.023 32.232C343.479 33.672 342.647 35.048 341.527 36.36C340.407 37.672 339.096 38.6 337.592 39.144C335.768 39.784 333.576 39.848 331.016 39.336ZM332.264 32.808C333.64 33.064 334.68 33.064 335.384 32.808C335.992 32.584 336.6 31.96 337.208 30.936C337.848 29.88 338.248 28.552 338.408 26.952C338.6 25.352 338.504 24.04 338.12 23.016C337.736 21.96 337.272 21.304 336.728 21.048C336.312 20.856 335.927 20.728 335.576 20.664C335.224 20.568 334.712 20.488 334.04 20.424C333.4 20.328 332.76 20.2 332.12 20.04C331.576 20.2 331.287 20.28 331.255 20.28L330.776 20.472C329.88 21.24 329.192 22.296 328.712 23.64C328.232 24.984 328.088 26.376 328.28 27.816C328.44 29.192 328.855 30.312 329.527 31.176C330.231 32.04 331.144 32.584 332.264 32.808Z" fill="#131313"/>
</svg>
